<svg xmlns="http://www.w3.org/2000/svg" version="1.1" xmlns:xlink="http://www.w3.org/1999/xlink" xmlns:svgjs="http://svgjs.dev/svgjs" width="1500" height="1500" viewBox="0 0 1500 1500"><rect width="1500" height="1500" fill="#ffffff"></rect><g transform="matrix(0.6666666666666666,0,0,0.6666666666666666,249.2559298978735,633.0509480988471)"><svg viewBox="0 0 343 102" data-background-color="#fee869" preserveAspectRatio="xMidYMid meet" height="446" width="1500" xmlns="http://www.w3.org/2000/svg" xmlns:xlink="http://www.w3.org/1999/xlink"><g id="tight-bounds" transform="matrix(1,0,0,1,0.25521604502938544,17.34011829759126)"><svg viewBox="0 0 342.4895673446532 84.19683768776886" height="84.19683768776886" width="342.4895673446532"><g><svg viewBox="0 0 342.4895673446532 84.19683768776886" height="84.19683768776886" width="342.4895673446532"><g><svg viewBox="0 0 342.4895673446532 84.19683768776886" height="84.19683768776886" width="342.4895673446532"><g id="textblocktransform"><svg viewBox="0 0 342.4895673446532 84.19683768776886" height="84.19683768776886" width="342.4895673446532" id="textblock"><g><svg viewBox="0 0 342.4895673446532 57.1963" height="57.1963" width="342.4895673446532"><g><svg><g></g><g></g></svg></g><g><svg><g><svg></svg></g><g></g></svg></g><g id="text-0"><svg viewBox="0 0 342.4895673446532 57.1963" height="57.1963" width="342.4895673446532"><g transform="matrix(1,0,0,1,0,10.998149999999999)"><svg width="109.85000000000001" viewBox="3.65 -34.5 109.83999999999999 35.1" height="35.1" data-palette-color="#222222"><path d="M32-34.5L36.95-34.5Q38.75-34.5 38.75-32.65L38.75-32.65 40.2 0 35.8 0 34.55-30.85 33.5-30.85 25.8-5.4Q25.4-3.9 23.9-3.9L23.9-3.9 19.95-3.9Q18.4-3.9 17.95-5.4L17.95-5.4 10.25-30.85 9.25-30.85 8.05 0 3.65 0 5-32.65Q5.1-34.5 6.85-34.5L6.85-34.5 11.85-34.5Q13.25-34.5 13.7-33L13.7-33 20.15-11.95Q20.55-10.8 20.83-9.65 21.1-8.5 21.45-7.3L21.45-7.3 22.35-7.3Q22.7-8.5 23-9.65 23.3-10.8 23.65-12.05L23.65-12.05 30.1-33Q30.5-34.5 32-34.5L32-34.5ZM57.75-24.95L57.75-24.95Q63.25-24.95 65.72-22.95 68.2-20.95 68.2-17L68.2-17Q68.25-13.75 66.85-11.93 65.45-10.1 62.4-10.1L62.4-10.1 48.2-10.1 48.2-13.4 61.3-13.4Q62.95-13.4 63.45-14.53 63.95-15.65 63.95-17L63.95-17Q63.9-19.35 62.55-20.35 61.2-21.35 57.95-21.35L57.95-21.35Q55.3-21.35 53.77-20.58 52.25-19.8 51.62-17.88 51-15.95 51-12.5L51-12.5Q51-8.6 51.77-6.55 52.55-4.5 54.25-3.75 55.95-3 58.75-3L58.75-3Q60.7-3 63.02-3.18 65.35-3.35 67.2-3.6L67.2-3.6 67.65-0.75Q66.5-0.3 64.82 0 63.15 0.3 61.37 0.45 59.6 0.6 58.2 0.6L58.2 0.6Q54 0.6 51.45-0.68 48.9-1.95 47.72-4.78 46.55-7.6 46.55-12.25L46.55-12.25Q46.55-17.05 47.72-19.83 48.9-22.6 51.37-23.78 53.85-24.95 57.75-24.95ZM76.45-31.55L80.7-31.55 80.7-6.7Q80.7-4.95 81.45-4.2 82.2-3.45 84-3.45L84-3.45 87.7-3.45 88.2-0.2Q87.4 0 86.35 0.15 85.3 0.3 84.3 0.38 83.3 0.45 82.7 0.45L82.7 0.45Q79.65 0.45 78.05-1.25 76.45-2.95 76.45-6.15L76.45-6.15 76.45-31.55ZM76.85-24.35L88.45-24.35 88.45-21 72.05-21 72.05-24.1 76.85-24.35ZM105.14-24.95L105.14-24.95Q107.84-24.95 109.72-24.23 111.59-23.5 112.54-21.8 113.49-20.1 113.49-17.15L113.49-17.15 113.49 0 110.14 0 109.49-5.3 109.19-5.85 109.19-17.15Q109.19-19.4 108.17-20.38 107.14-21.35 104.24-21.35L104.24-21.35Q102.34-21.35 99.47-21.15 96.59-20.95 93.79-20.7L93.79-20.7 93.39-23.85Q95.09-24.15 97.12-24.4 99.14-24.65 101.24-24.8 103.34-24.95 105.14-24.95ZM99.04-15L111.49-15 111.44-11.8 99.79-11.75Q98.04-11.7 97.34-10.83 96.64-9.95 96.64-8.4L96.64-8.4 96.64-6.85Q96.64-4.95 97.54-4.08 98.44-3.2 100.44-3.2L100.44-3.2Q101.84-3.2 103.62-3.73 105.39-4.25 107.19-5.35 108.99-6.45 110.49-8.15L110.49-8.15 110.49-5Q109.94-4.3 108.92-3.38 107.89-2.45 106.47-1.58 105.04-0.7 103.32-0.13 101.59 0.45 99.59 0.45L99.59 0.45Q97.44 0.45 95.79-0.33 94.14-1.1 93.22-2.63 92.29-4.15 92.29-6.35L92.29-6.35 92.29-9Q92.29-11.85 94.07-13.43 95.84-15 99.04-15L99.04-15Z" opacity="1" transform="matrix(1,0,0,1,0,0)" fill="#000000" class="undefined-tk-0" data-fill-palette-color="primary"></path></svg></g><g><svg xmlns="http://www.w3.org/2000/svg" data-name="Layer 1" viewBox="4.9991879398564745 15.255251864120059 90.00081206014353 69.4881567118983" x="123.3537" y="0" height="57.1963" width="74.08044320672211" class="icon-dxe-0" data-fill-palette-color="accent" id="dxe-0"><path d="M32.81 68.055A6.933 6.933 0 1 1 39.741 74.988 6.933 6.933 0 0 1 32.809 68.055M15.174 74.565A34.742 34.742 0 1 1 74.484 50 34.742 34.742 0 0 1 15.174 74.565M8.6 50A31.142 31.142 0 0 0 61.762 72.021 31.142 31.142 0 0 0 17.722 27.978 30.94 30.94 0 0 0 8.6 50M61.985 82.942H95V76.884H69.003C68.623 77.296 68.24 77.704 67.843 78.102A40 40 0 0 1 61.985 82.942M27.572 65.032A6.933 6.933 0 1 0 18.102 62.493 6.933 6.933 0 0 0 27.572 65.03M20.639 46.975A6.933 6.933 0 1 0 18.102 37.506 6.933 6.933 0 0 0 20.639 46.976M36 50A3.743 3.743 0 1 0 39.742 46.257 3.743 3.743 0 0 0 35.999 50M39.742 38.878A6.933 6.933 0 1 0 32.809 31.945 6.933 6.933 0 0 0 39.742 38.878M51.912 65.03A6.933 6.933 0 1 0 49.374 55.561 6.933 6.933 0 0 0 51.912 65.031M58.844 46.976A6.933 6.933 0 1 0 49.374 44.44 6.933 6.933 0 0 0 58.844 46.976" fill="#000000" data-fill-palette-color="accent"></path></svg></g><g transform="matrix(1,0,0,1,210.93784320672214,10.723149999999997)"><svg width="131.55172413793105" viewBox="3.65 -34.7 131.54172355737495 35.35" height="35.35" data-palette-color="#000000"><path d="M32-34.5L36.95-34.5Q38.75-34.5 38.75-32.65L38.75-32.65 40.2 0 35.8 0 34.55-30.85 33.5-30.85 25.8-5.4Q25.4-3.9 23.9-3.9L23.9-3.9 19.95-3.9Q18.4-3.9 17.95-5.4L17.95-5.4 10.25-30.85 9.25-30.85 8.05 0 3.65 0 5-32.65Q5.1-34.5 6.85-34.5L6.85-34.5 11.85-34.5Q13.25-34.5 13.7-33L13.7-33 20.15-11.95Q20.55-10.8 20.83-9.65 21.1-8.5 21.45-7.3L21.45-7.3 22.35-7.3Q22.7-8.5 23-9.65 23.3-10.8 23.65-12.05L23.65-12.05 30.1-33Q30.5-34.5 32-34.5L32-34.5ZM58.05-24.95L58.05-24.95Q62.25-24.95 64.77-23.7 67.3-22.45 68.4-19.63 69.5-16.8 69.5-12.15L69.5-12.15Q69.5-7.5 68.4-4.67 67.3-1.85 64.77-0.6 62.25 0.65 58.05 0.65L58.05 0.65Q53.9 0.65 51.37-0.6 48.85-1.85 47.72-4.67 46.6-7.5 46.6-12.15L46.6-12.15Q46.6-16.8 47.72-19.63 48.85-22.45 51.37-23.7 53.9-24.95 58.05-24.95ZM58.05-21.35L58.05-21.35Q55.4-21.35 53.87-20.53 52.35-19.7 51.7-17.7 51.05-15.7 51.05-12.15L51.05-12.15Q51.05-8.6 51.7-6.6 52.35-4.6 53.87-3.78 55.4-2.95 58.05-2.95L58.05-2.95Q60.7-2.95 62.25-3.78 63.8-4.6 64.45-6.6 65.1-8.6 65.1-12.15L65.1-12.15Q65.1-15.7 64.45-17.7 63.8-19.7 62.25-20.53 60.7-21.35 58.05-21.35ZM93-24.35L97.5-24.35 88.6-1.05Q88.4-0.55 88.02-0.28 87.65 0 87.1 0L87.1 0 83.25 0Q82.75 0 82.35-0.28 81.95-0.55 81.75-1.05L81.75-1.05 72.85-24.35 77.4-24.35 83.4-7.3Q83.8-6.25 84.15-5.15 84.5-4.05 84.85-3.05L84.85-3.05 85.5-3.05Q85.9-4.1 86.27-5.18 86.65-6.25 87-7.3L87-7.3 93-24.35ZM102.54-24.35L106.74-24.35 106.74 0 102.54 0 102.54-24.35ZM103.64-34.7L105.64-34.7Q106.94-34.7 106.94-33.4L106.94-33.4 106.94-30.55Q106.94-29.25 105.64-29.25L105.64-29.25 103.64-29.25Q102.34-29.25 102.34-30.55L102.34-30.55 102.34-33.4Q102.34-34.7 103.64-34.7L103.64-34.7ZM124.74-24.95L124.74-24.95Q130.24-24.95 132.72-22.95 135.19-20.95 135.19-17L135.19-17Q135.24-13.75 133.84-11.93 132.44-10.1 129.39-10.1L129.39-10.1 115.19-10.1 115.19-13.4 128.29-13.4Q129.94-13.4 130.44-14.53 130.94-15.65 130.94-17L130.94-17Q130.89-19.35 129.54-20.35 128.19-21.35 124.94-21.35L124.94-21.35Q122.29-21.35 120.77-20.58 119.24-19.8 118.62-17.88 117.99-15.95 117.99-12.5L117.99-12.5Q117.99-8.6 118.77-6.55 119.54-4.5 121.24-3.75 122.94-3 125.74-3L125.74-3Q127.69-3 130.02-3.18 132.34-3.35 134.19-3.6L134.19-3.6 134.64-0.75Q133.49-0.3 131.82 0 130.14 0.3 128.37 0.45 126.59 0.6 125.19 0.6L125.19 0.6Q120.99 0.6 118.44-0.68 115.89-1.95 114.72-4.78 113.54-7.6 113.54-12.25L113.54-12.25Q113.54-17.05 114.72-19.83 115.89-22.6 118.37-23.78 120.84-24.95 124.74-24.95Z" opacity="1" transform="matrix(1,0,0,1,0,0)" fill="#000000" class="undefined-tk-1" data-fill-palette-color="secondary"></path></svg></g></svg></g></svg></g><g transform="matrix(1,0,0,1,0,65.4825676)"><svg viewBox="0 0 342.4895673446532 18.714270087768863" height="18.714270087768863" width="342.4895673446532"><g transform="matrix(1,0,0,1,0,0)"><svg width="342.4895673446532" viewBox="0.5 -34.8 650.53 35.55" height="18.714270087768863" data-palette-color="#000000"><path d="M11.75 0L15.7 0 15.75-13.85 27.65-34 23.4-34 13.75-17.55 4.2-34.8 0.5-33.2 11.75-13.65 11.75 0ZM41.35 0.65L41.35 0.65Q37.75 0.7 35.15-0.98 32.55-2.65 31.17-5.53 29.8-8.4 29.8-12.2L29.8-12.2Q29.85-15.9 31.27-18.75 32.7-21.6 35.37-23.25 38.05-24.9 41.7-24.9L41.7-24.9Q45.35-24.9 47.95-23.3 50.55-21.7 51.95-18.85 53.35-16 53.35-12.05L53.35-12.05Q53.35-8.35 51.87-5.5 50.4-2.65 47.72-1 45.05 0.65 41.35 0.65ZM41.45-2.7L41.45-2.7Q43.95-2.7 45.7-3.95 47.45-5.2 48.37-7.3 49.3-9.4 49.3-12L49.3-12Q49.3-14.75 48.42-16.9 47.55-19.05 45.87-20.3 44.2-21.55 41.65-21.55L41.65-21.55Q39.2-21.55 37.45-20.3 35.7-19.05 34.77-16.95 33.85-14.85 33.8-12.25L33.8-12.25Q33.8-9.55 34.65-7.38 35.5-5.2 37.22-3.95 38.95-2.7 41.45-2.7ZM78.25-24.25L74.3-24.25 74.3-7.1Q73.2-5.9 71.75-4.88 70.3-3.85 68.87-3.28 67.45-2.7 66.15-2.7L66.15-2.7Q63.7-2.7 62.75-4.3 61.8-5.9 61.8-8.4L61.8-8.4 61.8-24.25 57.9-24.25 57.9-7.85Q57.9-5.4 58.67-3.45 59.45-1.5 61.15-0.4 62.85 0.7 65.5 0.7L65.5 0.7Q67.1 0.7 68.77 0.15 70.45-0.4 71.97-1.38 73.5-2.35 74.6-3.5L74.6-3.5 75.3 0 78.25 0 78.25-24.25ZM84.54 0L88.44 0 88.44-16.7Q89.54-17.8 90.99-18.8 92.44-19.8 94.07-20.45 95.69-21.1 97.09-21.1L97.09-21.1 96.14-24.25Q94.84-24.25 93.32-23.6 91.79-22.95 90.42-22.03 89.04-21.1 88.09-20.35L88.09-20.35 86.89-24.25 84.54-24.25 84.54 0ZM134.64-29.85L135.89-32.75Q134.74-33.45 133.16-33.88 131.59-34.3 130.01-34.5 128.44-34.7 127.39-34.7L127.39-34.7Q123.69-34.7 120.71-33.35 117.74-32 115.66-29.55 113.59-27.1 112.49-23.85 111.39-20.6 111.39-16.8L111.39-16.8Q111.39-13.25 112.36-10.1 113.34-6.95 115.31-4.53 117.29-2.1 120.24-0.7 123.19 0.7 127.09 0.7L127.09 0.7Q128.54 0.7 130.19 0.45 131.84 0.2 133.36-0.25 134.89-0.7 135.94-1.25L135.94-1.25 134.44-4.2Q133.04-3.6 131.29-3.15 129.54-2.7 126.94-2.7L126.94-2.7Q124.24-2.7 122.11-3.8 119.99-4.9 118.51-6.88 117.04-8.85 116.29-11.4 115.54-13.95 115.54-16.85L115.54-16.85Q115.54-21.1 117.11-24.35 118.69-27.6 121.36-29.45 124.04-31.3 127.39-31.3L127.39-31.3Q129.09-31.3 130.29-31.13 131.49-30.95 132.51-30.63 133.54-30.3 134.64-29.85L134.64-29.85ZM140.19 0L144.19 0 144.19-24.25 140.19-24.25 140.19 0ZM142.14-29.05L142.14-29.05Q143.24-29.05 144.04-29.83 144.84-30.6 144.84-31.75L144.84-31.75Q144.84-32.9 144.01-33.68 143.19-34.45 142.09-34.45L142.09-34.45Q140.94-34.45 140.19-33.68 139.44-32.9 139.44-31.75L139.44-31.75Q139.44-30.6 140.19-29.83 140.94-29.05 142.14-29.05ZM150.43 0L154.33 0 154.33-17.2Q155.53-18.45 156.93-19.43 158.33-20.4 159.81-21 161.28-21.6 162.48-21.6L162.48-21.6Q164.98-21.6 165.91-20 166.83-18.4 166.83-15.9L166.83-15.9 166.83 0 170.78 0 170.78-16.4Q170.78-18.9 169.98-20.83 169.18-22.75 167.51-23.88 165.83-25 163.18-25L163.18-25Q161.58-25 159.88-24.45 158.18-23.9 156.68-22.95 155.18-22 154.03-20.8L154.03-20.8 153.33-24.25 150.43-24.25 150.43 0ZM179.43-11.5L197.03-11.5 197.03-11.85Q197.03-15.5 195.96-18.45 194.88-21.4 192.61-23.15 190.33-24.9 186.68-24.9L186.68-24.9Q183.08-24.9 180.56-23.28 178.03-21.65 176.71-18.8 175.38-15.95 175.38-12.2L175.38-12.2Q175.38-8.4 176.78-5.5 178.18-2.6 181.01-1 183.83 0.6 188.08 0.6L188.08 0.6Q189.88 0.6 191.41 0.28 192.93-0.05 194.26-0.63 195.58-1.2 196.73-1.85L196.73-1.85 195.43-4.75Q193.53-3.8 191.83-3.23 190.13-2.65 188.03-2.65L188.03-2.65Q185.03-2.65 183.18-3.8 181.33-4.95 180.46-6.95 179.58-8.95 179.43-11.5L179.43-11.5ZM193.13-14.2L179.53-14.2Q179.78-16.4 180.61-18.05 181.43-19.7 182.91-20.63 184.38-21.55 186.53-21.55L186.53-21.55Q188.63-21.55 190.01-20.63 191.38-19.7 192.13-18.05 192.88-16.4 193.13-14.2L193.13-14.2ZM201.83 0L205.73 0 205.73-17.2Q206.93-18.45 208.3-19.43 209.68-20.4 211.03-21 212.38-21.6 213.48-21.6L213.48-21.6Q215.08-21.6 215.93-20.88 216.78-20.15 217.13-18.88 217.48-17.6 217.48-15.9L217.48-15.9 217.48 0 221.43 0 221.43-16.45Q221.43-18.9 220.68-20.83 219.93-22.75 218.33-23.88 216.73-25 214.13-25L214.13-25Q212.73-25 211.13-24.45 209.53-23.9 208.05-22.95 206.58-22 205.43-20.8L205.43-20.8 204.73-24.25 201.83-24.25 201.83 0ZM220.63-20.8L220.98-17.2Q222.18-18.45 223.53-19.43 224.88-20.4 226.23-21 227.58-21.6 228.73-21.6L228.73-21.6Q230.28-21.6 231.13-20.88 231.98-20.15 232.35-18.88 232.73-17.6 232.73-15.9L232.73-15.9 232.73 0 236.68 0 236.68-16.45Q236.68-18.9 235.93-20.83 235.18-22.75 233.55-23.88 231.93-25 229.38-25L229.38-25Q227.98-25 226.35-24.45 224.73-23.9 223.25-22.95 221.78-22 220.63-20.8L220.63-20.8ZM245.73-6.9L245.73-6.9Q245.73-8.8 247-10.23 248.28-11.65 250.73-11.65L250.73-11.65 257.08-11.65 257.08-6.1Q255.83-4.65 254.08-3.6 252.33-2.55 250.23-2.55L250.23-2.55Q248.68-2.55 247.68-3.2 246.68-3.85 246.2-4.88 245.73-5.9 245.73-6.9ZM243.63-22.75L244.78-19.8Q246.13-20.35 247.75-20.9 249.38-21.45 251.73-21.45L251.73-21.45Q254.63-21.45 255.85-19.8 257.08-18.15 257.08-15.65L257.08-15.65 257.08-14.3 250.83-14.3Q246.93-14.3 244.48-12.38 242.03-10.45 242.03-6.9L242.03-6.9Q242.03-3.7 244.08-1.55 246.13 0.6 250.38 0.6L250.38 0.6Q252.38 0.6 254.4-0.35 256.43-1.3 257.58-2.45L257.58-2.45 258.08 0 261.08 0 261.08-16.7Q261.08-19.1 259.88-20.95 258.68-22.8 256.55-23.85 254.43-24.9 251.63-24.9L251.63-24.9Q250.63-24.9 249.08-24.63 247.53-24.35 246.05-23.88 244.58-23.4 243.63-22.75L243.63-22.75ZM277.92-20.85L276.67-23.85 272.27-23.85 272.27-31.1 268.27-30 268.27-23.85 264.77-23.85 264.82-20.85 268.27-20.85 268.27-6.3Q268.27-4 269.12-2.45 269.97-0.9 271.52-0.08 273.07 0.75 275.12 0.75L275.12 0.75Q275.82 0.75 276.52 0.63 277.22 0.5 277.82 0.3 278.42 0.1 278.82-0.1L278.82-0.1 277.87-3.2Q277.52-3.05 276.9-2.88 276.27-2.7 275.67-2.7L275.67-2.7Q273.87-2.7 273.07-3.85 272.27-5 272.27-6.85L272.27-6.85 272.27-20.85 277.92-20.85ZM283.12 0L287.12 0 287.12-24.25 283.12-24.25 283.12 0ZM285.07-29.05L285.07-29.05Q286.17-29.05 286.97-29.83 287.77-30.6 287.77-31.75L287.77-31.75Q287.77-32.9 286.95-33.68 286.12-34.45 285.02-34.45L285.02-34.45Q283.87-34.45 283.12-33.68 282.37-32.9 282.37-31.75L282.37-31.75Q282.37-30.6 283.12-29.83 283.87-29.05 285.07-29.05ZM311.52-1.55L310.27-4.35Q308.87-3.65 307.39-3.18 305.92-2.7 303.52-2.7L303.52-2.7Q301.02-2.7 299.29-3.95 297.57-5.2 296.72-7.38 295.87-9.55 295.87-12.25L295.87-12.25Q295.92-14.85 296.84-16.95 297.77-19.05 299.52-20.3 301.27-21.55 303.72-21.55L303.72-21.55Q306.07-21.55 307.57-21.03 309.07-20.5 310.47-19.9L310.47-19.9 311.67-22.65Q310.67-23.35 309.19-23.85 307.72-24.35 306.27-24.63 304.82-24.9 303.82-24.9L303.82-24.9Q300.17-24.9 297.47-23.28 294.77-21.65 293.34-18.8 291.92-15.95 291.87-12.2L291.87-12.2Q291.87-8.4 293.27-5.5 294.67-2.6 297.29-0.98 299.92 0.65 303.57 0.65L303.57 0.65Q304.62 0.65 306.07 0.38 307.52 0.1 308.99-0.4 310.47-0.9 311.52-1.55L311.52-1.55ZM332.81-12.5L332.81-34 328.91-34 328.91-12.05Q328.91-8.45 330.49-5.58 332.06-2.7 334.96-1.07 337.86 0.55 341.81 0.55L341.81 0.55Q345.81 0.55 348.69-1.1 351.56-2.75 353.14-5.6 354.71-8.45 354.71-12.05L354.71-12.05 354.71-34 350.71-34 350.71-12.5Q350.71-9.65 349.64-7.43 348.56-5.2 346.56-3.95 344.56-2.7 341.81-2.7L341.81-2.7Q339.11-2.7 337.09-3.95 335.06-5.2 333.94-7.4 332.81-9.6 332.81-12.5L332.81-12.5ZM361.96 0L365.86 0 365.86-17.2Q367.06-18.45 368.46-19.43 369.86-20.4 371.33-21 372.81-21.6 374.01-21.6L374.01-21.6Q376.51-21.6 377.44-20 378.36-18.4 378.36-15.9L378.36-15.9 378.36 0 382.31 0 382.31-16.4Q382.31-18.9 381.51-20.83 380.71-22.75 379.04-23.88 377.36-25 374.71-25L374.71-25Q373.11-25 371.41-24.45 369.71-23.9 368.21-22.95 366.71-22 365.56-20.8L365.56-20.8 364.86-24.25 361.96-24.25 361.96 0ZM388.41 0L392.41 0 392.41-24.25 388.41-24.25 388.41 0ZM390.36-29.05L390.36-29.05Q391.46-29.05 392.26-29.83 393.06-30.6 393.06-31.75L393.06-31.75Q393.06-32.9 392.23-33.68 391.41-34.45 390.31-34.45L390.31-34.45Q389.16-34.45 388.41-33.68 387.66-32.9 387.66-31.75L387.66-31.75Q387.66-30.6 388.41-29.83 389.16-29.05 390.36-29.05ZM404.9 0L408.75 0 417.75-24.25 413.81-24.25 406.86-5.35 399.61-25.05 396-23.5 404.9 0ZM423.95-11.5L441.55-11.5 441.55-11.85Q441.55-15.5 440.48-18.45 439.4-21.4 437.13-23.15 434.85-24.9 431.2-24.9L431.2-24.9Q427.6-24.9 425.08-23.28 422.55-21.65 421.23-18.8 419.9-15.95 419.9-12.2L419.9-12.2Q419.9-8.4 421.3-5.5 422.7-2.6 425.53-1 428.35 0.6 432.6 0.6L432.6 0.6Q434.4 0.6 435.93 0.28 437.45-0.05 438.78-0.63 440.1-1.2 441.25-1.85L441.25-1.85 439.95-4.75Q438.05-3.8 436.35-3.23 434.65-2.65 432.55-2.65L432.55-2.65Q429.55-2.65 427.7-3.8 425.85-4.95 424.98-6.95 424.1-8.95 423.95-11.5L423.95-11.5ZM437.65-14.2L424.05-14.2Q424.3-16.4 425.13-18.05 425.95-19.7 427.43-20.63 428.9-21.55 431.05-21.55L431.05-21.55Q433.15-21.55 434.53-20.63 435.9-19.7 436.65-18.05 437.4-16.4 437.65-14.2L437.65-14.2ZM446.35 0L450.25 0 450.25-16.7Q451.35-17.8 452.8-18.8 454.25-19.8 455.88-20.45 457.5-21.1 458.9-21.1L458.9-21.1 457.95-24.25Q456.65-24.25 455.13-23.6 453.6-22.95 452.22-22.03 450.85-21.1 449.9-20.35L449.9-20.35 448.7-24.25 446.35-24.25 446.35 0ZM462.5-4.2L461.3-1.4Q462.3-0.75 463.7-0.3 465.1 0.15 466.57 0.4 468.05 0.65 469.05 0.65L469.05 0.65Q473.8 0.65 476.27-1.23 478.75-3.1 478.75-6.4L478.75-6.4Q478.75-8.4 477.55-9.85 476.35-11.3 474.5-12.35 472.65-13.4 470.65-14.05L470.65-14.05Q468.25-14.85 466.65-15.83 465.05-16.8 465-18.15L465-18.15Q465-19.7 466.42-20.7 467.85-21.7 470.1-21.7L470.1-21.7Q472.2-21.7 473.75-21.15 475.3-20.6 476.5-20L476.5-20 477.75-22.75Q476.85-23.4 475.45-23.88 474.05-24.35 472.62-24.63 471.2-24.9 470.15-24.9L470.15-24.9Q466-24.9 463.55-23.08 461.1-21.25 461.1-18L461.1-18Q461.1-16.1 462.3-14.73 463.5-13.35 465.32-12.43 467.15-11.5 469.05-10.85L469.05-10.85Q470.7-10.3 472.05-9.63 473.4-8.95 474.22-8.1 475.05-7.25 475.05-6.15L475.05-6.15Q475.05-5.05 474.3-4.23 473.55-3.4 472.22-2.98 470.9-2.55 469.1-2.55L469.1-2.55Q467.95-2.55 466.8-2.78 465.65-3 464.57-3.38 463.5-3.75 462.5-4.2L462.5-4.2ZM486.09-11.5L503.69-11.5 503.69-11.85Q503.69-15.5 502.62-18.45 501.54-21.4 499.27-23.15 497-24.9 493.34-24.9L493.34-24.9Q489.75-24.9 487.22-23.28 484.69-21.65 483.37-18.8 482.04-15.95 482.04-12.2L482.04-12.2Q482.04-8.4 483.44-5.5 484.84-2.6 487.67-1 490.5 0.6 494.75 0.6L494.75 0.6Q496.54 0.6 498.07 0.28 499.59-0.05 500.92-0.63 502.25-1.2 503.39-1.85L503.39-1.85 502.09-4.75Q500.19-3.8 498.5-3.23 496.79-2.65 494.69-2.65L494.69-2.65Q491.69-2.65 489.84-3.8 488-4.95 487.12-6.95 486.25-8.95 486.09-11.5L486.09-11.5ZM499.79-14.2L486.19-14.2Q486.44-16.4 487.27-18.05 488.09-19.7 489.57-20.63 491.04-21.55 493.19-21.55L493.19-21.55Q495.29-21.55 496.67-20.63 498.04-19.7 498.79-18.05 499.54-16.4 499.79-14.2L499.79-14.2ZM531.94-28.75L538.09-12.85 525.99-12.85 531.94-28.75ZM533.84-34L530.09-34 517.49 0 521.34 0 524.89-9.65 539.24-9.65 543.04 0.35 546.94-0.3 533.84-34ZM569.49 0L573.34 0 580.54-24.25 576.54-24.25 571.44-5.65 566.04-24.25 562.04-24.25 556.94-5.65 551.54-25 547.94-23.45 554.94 0 558.84 0 563.99-18.45 569.49 0ZM587.18-6.9L587.18-6.9Q587.18-8.8 588.46-10.23 589.73-11.65 592.18-11.65L592.18-11.65 598.53-11.65 598.53-6.1Q597.28-4.65 595.53-3.6 593.78-2.55 591.68-2.55L591.68-2.55Q590.13-2.55 589.13-3.2 588.13-3.85 587.66-4.88 587.18-5.9 587.18-6.9ZM585.08-22.75L586.23-19.8Q587.58-20.35 589.21-20.9 590.83-21.45 593.18-21.45L593.18-21.45Q596.08-21.45 597.31-19.8 598.53-18.15 598.53-15.65L598.53-15.65 598.53-14.3 592.28-14.3Q588.38-14.3 585.93-12.38 583.48-10.45 583.48-6.9L583.48-6.9Q583.48-3.7 585.53-1.55 587.58 0.6 591.83 0.6L591.83 0.6Q593.83 0.6 595.86-0.35 597.88-1.3 599.03-2.45L599.03-2.45 599.53 0 602.53 0 602.53-16.7Q602.53-19.1 601.33-20.95 600.13-22.8 598.01-23.85 595.88-24.9 593.08-24.9L593.08-24.9Q592.08-24.9 590.53-24.63 588.98-24.35 587.51-23.88 586.03-23.4 585.08-22.75L585.08-22.75ZM608.58 0L612.58 0 612.58-24.25 608.58-24.25 608.58 0ZM610.53-29.05L610.53-29.05Q611.63-29.05 612.43-29.83 613.23-30.6 613.23-31.75L613.23-31.75Q613.23-32.9 612.41-33.68 611.58-34.45 610.48-34.45L610.48-34.45Q609.33-34.45 608.58-33.68 607.83-32.9 607.83-31.75L607.83-31.75Q607.83-30.6 608.58-29.83 609.33-29.05 610.53-29.05ZM629.63-20.85L628.38-23.85 623.98-23.85 623.98-31.1 619.98-30 619.98-23.85 616.48-23.85 616.53-20.85 619.98-20.85 619.98-6.3Q619.98-4 620.83-2.45 621.68-0.9 623.23-0.08 624.78 0.75 626.83 0.75L626.83 0.75Q627.53 0.75 628.23 0.63 628.93 0.5 629.53 0.3 630.13 0.1 630.53-0.1L630.53-0.1 629.58-3.2Q629.23-3.05 628.6-2.88 627.98-2.7 627.38-2.7L627.38-2.7Q625.58-2.7 624.78-3.85 623.98-5 623.98-6.85L623.98-6.85 623.98-20.85 629.63-20.85ZM634.78-4.2L633.58-1.4Q634.58-0.75 635.98-0.3 637.38 0.15 638.85 0.4 640.33 0.65 641.33 0.65L641.33 0.65Q646.08 0.65 648.55-1.23 651.03-3.1 651.03-6.4L651.03-6.4Q651.03-8.4 649.83-9.85 648.63-11.3 646.78-12.35 644.93-13.4 642.93-14.05L642.93-14.05Q640.53-14.85 638.93-15.83 637.33-16.8 637.28-18.15L637.28-18.15Q637.28-19.7 638.7-20.7 640.13-21.7 642.38-21.7L642.38-21.7Q644.48-21.7 646.03-21.15 647.58-20.6 648.78-20L648.78-20 650.03-22.75Q649.13-23.4 647.73-23.88 646.33-24.35 644.9-24.63 643.48-24.9 642.43-24.9L642.43-24.9Q638.28-24.9 635.83-23.08 633.38-21.25 633.38-18L633.38-18Q633.38-16.1 634.58-14.73 635.78-13.35 637.6-12.43 639.43-11.5 641.33-10.85L641.33-10.85Q642.98-10.3 644.33-9.63 645.68-8.95 646.5-8.1 647.33-7.25 647.33-6.15L647.33-6.15Q647.33-5.05 646.58-4.23 645.83-3.4 644.5-2.98 643.18-2.55 641.38-2.55L641.38-2.55Q640.23-2.55 639.08-2.78 637.93-3 636.85-3.38 635.78-3.75 634.78-4.2L634.78-4.2Z" opacity="1" transform="matrix(1,0,0,1,0,0)" fill="#000000" class="slogan-text-1" data-fill-palette-color="secondary" id="text-1"></path></svg></g></svg></g></svg></g></svg></g><g></g></svg></g><defs></defs></svg><rect width="342.4895673446532" height="84.19683768776886" fill="none" stroke="none" visibility="hidden"></rect></g></svg></g></svg>