<svg xmlns="http://www.w3.org/2000/svg" version="1.1" xmlns:xlink="http://www.w3.org/1999/xlink" xmlns:svgjs="http://svgjs.dev/svgjs" width="1500" height="863" viewBox="0 0 1500 863"><g transform="matrix(1,0,0,1,-0.9090909090909918,-0.39257399556481687)"><svg viewBox="0 0 396 228" data-background-color="#ffffff" preserveAspectRatio="xMidYMid meet" height="863" width="1500" xmlns="http://www.w3.org/2000/svg" xmlns:xlink="http://www.w3.org/1999/xlink"><g id="tight-bounds" transform="matrix(1,0,0,1,0.2400000000000091,0.10371595711329462)"><svg viewBox="0 0 395.52 227.7925680857734" height="227.7925680857734" width="395.52"><g><svg viewBox="0 0 397.4975999999999 228.93153092620224" height="227.7925680857734" width="395.52"><g><rect width="397.4975999999999" height="4.288004585169836" x="0" y="128.53457129224893" fill="#000000" opacity="1" stroke-width="0" stroke="transparent" fill-opacity="1" class="rect-yte-0" data-fill-palette-color="primary" rx="1%" id="yte-0" data-palette-color="#000000"></rect></g><g transform="matrix(1,0,0,1,0.9887999999999693,144.04771877053352)"><svg viewBox="0 0 395.52 84.88381215566872" height="84.88381215566872" width="395.52"><g id="textblocktransform"><svg viewBox="0 0 395.52 84.88381215566872" height="84.88381215566872" width="395.52" id="textblock"><g><svg viewBox="0 0 395.52 47.54885245901639" height="47.54885245901639" width="395.52"><g transform="matrix(1,0,0,1,0,0)"><svg width="395.52" viewBox="1.3 -36.5 310.08 37.4" height="47.54885245901639" data-palette-color="#000000"><g class="wordmark-text-0" data-fill-palette-color="primary" id="text-0"><path d="M5.95-29.45L5.95-2.45Q5.95-1.9 6.18-1.73 6.4-1.55 7.1-1.4L7.1-1.4 8.9-1 8.9 0 1.3 0 1.3-1 3.15-1.4Q3.9-1.55 4.13-1.75 4.35-1.95 4.35-2.5L4.35-2.5 4.35-32.5Q4.35-33.05 4.13-33.25 3.9-33.45 3.15-33.6L3.15-33.6 1.3-34 1.3-35 14.1-35 24.4-12.75 33.6-35 46.8-35 46.8-34 44.95-33.6Q44.2-33.45 43.98-33.25 43.75-33.05 43.75-32.5L43.75-32.5 43.75-2.5Q43.75-1.95 43.98-1.75 44.2-1.55 44.95-1.4L44.95-1.4 46.8-1 46.8 0 30.6 0 30.6-1 32.4-1.4Q33.1-1.55 33.33-1.73 33.55-1.9 33.55-2.45L33.55-2.45 33.55-30.75 20.85 0 19.35 0 5.95-29.45ZM60.9-12.8Q60.95-7.25 62.67-4.35 64.4-1.45 69.15-1.45L69.15-1.45Q71.5-1.45 73.32-2.15 75.15-2.85 77.1-4.15L77.1-4.15 77.75-3.2Q73.1 0.6 65.45 0.6L65.45 0.6Q58.55 0.6 54.57-2.73 50.6-6.05 50.6-12.45L50.6-12.45Q50.6-18.5 54.65-21.7 58.7-24.9 66-24.9L66-24.9Q70.15-24.9 73-23.6 75.85-22.3 77.22-20.13 78.6-17.95 78.6-15.3L78.6-15.3Q78.6-13.95 78.35-12.8L78.35-12.8 60.9-12.8ZM65.7-23.7Q62.95-23.7 61.95-21.4 60.95-19.1 60.9-14.1L60.9-14.1 69.3-14.1 69.3-17.85Q69.3-20.9 68.57-22.3 67.85-23.7 65.7-23.7L65.7-23.7ZM85.34-23L82.09-23 82.09-24.3Q83.65-24.3 84.4-24.55 85.15-24.8 85.9-25.45L85.9-25.45 94.8-33.45 95.25-33.45 95.25-24.3 101.7-24.3 101.7-23 95.25-23 95.25-6.2Q95.25-3.8 95.82-2.83 96.4-1.85 97.8-1.85L97.8-1.85Q98.9-1.85 99.75-2.3 100.59-2.75 101.59-3.85L101.59-3.85 102.4-2.9Q99.25 0.6 93.09 0.6L93.09 0.6Q88.95 0.6 87.15-1.15 85.34-2.9 85.34-6.6L85.34-6.6 85.34-23ZM124.19 0Q122.79 0 122.22-0.58 121.64-1.15 121.64-2.5L121.64-2.5 121.64-2.75Q118.29 0.5 112.09 0.5L112.09 0.5Q108.84 0.5 107.02-0.98 105.19-2.45 105.19-5.55L105.19-5.55Q105.19-8.65 107.02-10.4 108.84-12.15 112.34-12.9 115.84-13.65 121.64-13.8L121.64-13.8 121.64-17.45Q121.64-20.25 120.54-21.48 119.44-22.7 116.69-22.7L116.69-22.7Q114.39-22.7 112.42-22.08 110.44-21.45 108.39-20.2L108.39-20.2 107.74-21.15Q110.14-22.85 113.52-23.88 116.89-24.9 121.09-24.9L121.09-24.9Q126.74-24.9 129.14-22.68 131.54-20.45 131.54-16.25L131.54-16.25 131.54-2.4Q131.54-1.85 131.77-1.65 131.99-1.45 132.74-1.3L132.74-1.3 134.49-0.9 134.49 0 124.19 0ZM117.69-2.65Q119.84-2.65 121.64-4.35L121.64-4.35 121.64-12.45Q118.84-12.25 117.39-11.58 115.94-10.9 115.42-9.65 114.89-8.4 114.89-6.25L114.89-6.25Q114.89-4.35 115.57-3.5 116.24-2.65 117.69-2.65L117.69-2.65Z" fill="#000000" data-fill-palette-color="primary"></path><path d="M154.94-29.45L154.94-2.45Q154.94-1.9 155.16-1.73 155.39-1.55 156.09-1.4L156.09-1.4 157.89-1 157.89 0 150.29 0 150.29-1 152.14-1.4Q152.89-1.55 153.11-1.75 153.34-1.95 153.34-2.5L153.34-2.5 153.34-32.5Q153.34-33.05 153.11-33.25 152.89-33.45 152.14-33.6L152.14-33.6 150.29-34 150.29-35 163.09-35 173.39-12.75 182.59-35 195.79-35 195.79-34 193.94-33.6Q193.19-33.45 192.96-33.25 192.74-33.05 192.74-32.5L192.74-32.5 192.74-2.5Q192.74-1.95 192.96-1.75 193.19-1.55 193.94-1.4L193.94-1.4 195.79-1 195.79 0 179.59 0 179.59-1 181.39-1.4Q182.09-1.55 182.31-1.73 182.54-1.9 182.54-2.45L182.54-2.45 182.54-30.75 169.84 0 168.34 0 154.94-29.45ZM230.79-12.15Q230.79-5.7 226.76-2.55 222.74 0.6 215.19 0.6L215.19 0.6Q207.64 0.6 203.61-2.55 199.58-5.7 199.58-12.15L199.58-12.15Q199.58-18.6 203.61-21.75 207.64-24.9 215.19-24.9L215.19-24.9Q222.74-24.9 226.76-21.75 230.79-18.6 230.79-12.15L230.79-12.15ZM209.99-12.15Q209.99-7.7 210.41-5.3 210.83-2.9 211.94-1.8 213.04-0.7 215.19-0.7L215.19-0.7Q217.33-0.7 218.44-1.8 219.54-2.9 219.96-5.3 220.39-7.7 220.39-12.15L220.39-12.15Q220.39-16.6 219.96-19 219.54-21.4 218.44-22.5 217.33-23.6 215.19-23.6L215.19-23.6Q213.04-23.6 211.94-22.5 210.83-21.4 210.41-19 209.99-16.6 209.99-12.15L209.99-12.15ZM249.18-23.55L247.88-23.25Q246.73-23 246.73-22.3L246.73-22.3Q246.73-22 246.98-21.5L246.98-21.5 252.78-9.85 258.23-22.55Q258.38-22.85 258.38-23.05L258.38-23.05Q258.38-23.35 257.73-23.4L257.73-23.4 256.43-23.55 256.43-24.3 262.18-24.3 262.18-23.55 260.88-23.35Q260.28-23.25 260.03-23.1 259.78-22.95 259.53-22.4L259.53-22.4 249.38 0.9 248.48 0.9 236.38-22.2Q236.13-22.65 235.81-22.85 235.48-23.05 234.98-23.15L234.98-23.15 233.48-23.55 233.48-24.3 249.18-24.3 249.18-23.55ZM271.63-28.1Q269.28-28.1 267.88-29.18 266.48-30.25 266.48-32.3L266.48-32.3Q266.48-34.35 267.88-35.43 269.28-36.5 271.63-36.5L271.63-36.5Q273.98-36.5 275.38-35.43 276.78-34.35 276.78-32.3L276.78-32.3Q276.78-30.25 275.38-29.18 273.98-28.1 271.63-28.1L271.63-28.1ZM263.68 0L263.68-0.9 265.43-1.3Q266.18-1.45 266.41-1.65 266.63-1.85 266.63-2.4L266.63-2.4 266.63-21.3Q266.63-21.85 266.41-22.05 266.18-22.25 265.43-22.4L265.43-22.4 263.68-22.8 263.68-23.7 275.68-25.2 276.63-25.2 276.63-2.4Q276.63-1.85 276.86-1.65 277.08-1.45 277.83-1.3L277.83-1.3 279.58-0.9 279.58 0 263.68 0ZM293.68-12.8Q293.73-7.25 295.45-4.35 297.18-1.45 301.93-1.45L301.93-1.45Q304.28-1.45 306.1-2.15 307.93-2.85 309.88-4.15L309.88-4.15 310.53-3.2Q305.88 0.6 298.23 0.6L298.23 0.6Q291.33 0.6 287.35-2.73 283.38-6.05 283.38-12.45L283.38-12.45Q283.38-18.5 287.43-21.7 291.48-24.9 298.78-24.9L298.78-24.9Q302.93-24.9 305.78-23.6 308.63-22.3 310-20.13 311.38-17.95 311.38-15.3L311.38-15.3Q311.38-13.95 311.13-12.8L311.13-12.8 293.68-12.8ZM298.48-23.7Q295.73-23.7 294.73-21.4 293.73-19.1 293.68-14.1L293.68-14.1 302.08-14.1 302.08-17.85Q302.08-20.9 301.35-22.3 300.63-23.7 298.48-23.7L298.48-23.7Z" fill="#0191da" data-fill-palette-color="accent"></path></g></svg></g></svg></g><g transform="matrix(1,0,0,1,0,58.77399535213114)"><svg viewBox="0 0 395.52 26.109816803537583" height="26.109816803537583" width="395.52"><g transform="matrix(1,0,0,1,0,0)"><svg width="395.52" viewBox="0.49 -38.23 618.36 40.82" height="26.109816803537583" data-palette-color="#000000"><path d="M23.49-33.59L23.49-33.59Q23.49-31.45 22.92-28.86 22.36-26.27 21.48-23.63 20.61-21 19.58-18.51 18.55-16.02 17.68-14.11L17.68-14.11Q17.19-13.04 16.48-11.4 15.77-9.77 14.89-7.91 14.01-6.05 13.01-4.17 12.01-2.29 10.94-0.81 9.86 0.68 8.74 1.64 7.62 2.59 6.49 2.59L6.49 2.59Q4.93 2.59 4.27 1.44 3.61 0.29 3.61-1.12L3.61-1.12Q3.61-2.49 4.08-4.03 4.54-5.57 5.25-7.08 5.96-8.59 6.81-10.01 7.67-11.43 8.4-12.55L8.4-12.55Q7.42-12.79 6.49-13.43 5.57-14.06 5.13-14.94L5.13-14.94Q4.35-16.65 3.52-18.8 2.69-20.95 2.03-23.17 1.37-25.39 0.93-27.61 0.49-29.83 0.49-31.69L0.49-31.69Q0.49-32.57 0.68-33.62 0.88-34.67 1.34-35.57 1.81-36.47 2.56-37.08 3.32-37.7 4.44-37.7L4.44-37.7Q5.71-37.7 6.69-36.74 7.67-35.79 8.42-34.33 9.18-32.86 9.72-31.05 10.25-29.25 10.64-27.49 11.04-25.73 11.28-24.27 11.52-22.8 11.72-21.97L11.72-21.97Q11.91-22.71 12.38-24.19 12.84-25.68 13.5-27.49 14.16-29.3 15.01-31.2 15.87-33.11 16.82-34.67 17.77-36.23 18.85-37.23 19.92-38.23 21.04-38.23L21.04-38.23Q21.78-38.23 22.27-37.7 22.75-37.16 23.02-36.43 23.29-35.69 23.39-34.91 23.49-34.13 23.49-33.59ZM31.98 1.42L31.98 1.42Q29.49 1.42 27.64 0.1 25.78-1.22 24.51-3.27 23.24-5.32 22.61-7.84 21.97-10.35 21.97-12.79L21.97-12.79Q21.97-15.38 22.61-18.14 23.24-20.9 24.56-23.17 25.88-25.44 27.93-26.88 29.98-28.32 32.81-28.32L32.81-28.32Q35.55-28.32 37.48-26.83 39.4-25.34 40.58-23.12 41.75-20.9 42.24-18.26 42.72-15.63 42.58-13.28L42.58-13.28Q42.43-10.69 41.77-8.06 41.11-5.42 39.84-3.32 38.57-1.22 36.62 0.1 34.67 1.42 31.98 1.42ZM32.47-20.65L32.47-20.65Q31.74-20.65 31.18-19.87 30.62-19.09 30.25-17.97 29.88-16.85 29.69-15.6 29.49-14.36 29.49-13.43L29.49-13.43Q29.49-12.26 29.71-10.89 29.93-9.52 30.32-8.37 30.71-7.23 31.27-6.47 31.84-5.71 32.57-5.71L32.57-5.71Q33.35-5.71 33.91-6.45 34.47-7.18 34.81-8.3 35.16-9.42 35.3-10.77 35.45-12.11 35.45-13.28L35.45-13.28Q35.45-14.36 35.25-15.65 35.06-16.94 34.69-18.07 34.33-19.19 33.76-19.92 33.2-20.65 32.47-20.65ZM66.46-13.96L66.46-13.96Q66.46-11.28 65.92-8.64 65.38-6.01 64.11-3.93 62.84-1.86 60.72-0.59 58.59 0.68 55.42 0.68L55.42 0.68Q52.29 0.68 50.2-0.56 48.1-1.81 46.85-3.86 45.61-5.91 45.09-8.5 44.58-11.08 44.58-13.77L44.58-13.77Q44.58-16.7 45.26-19.58L45.26-19.58Q45.41-20.36 45.83-21.75 46.24-23.14 46.9-24.49 47.56-25.83 48.41-26.81 49.27-27.78 50.29-27.78L50.29-27.78Q51.27-27.78 51.86-27.25 52.44-26.71 52.78-25.9 53.13-25.1 53.22-24.19 53.32-23.29 53.32-22.56L53.32-22.56Q53.32-21.44 53.15-20.36 52.98-19.29 52.78-18.21L52.78-18.21Q52.59-16.75 52.42-15.28 52.25-13.82 52.25-12.35L52.25-12.35Q52.25-11.62 52.32-10.72 52.39-9.81 52.69-8.98 52.98-8.15 53.52-7.59 54.05-7.03 55.03-7.03L55.03-7.03Q56.3-7.03 57.06-7.71 57.81-8.4 58.18-9.42 58.54-10.45 58.64-11.62 58.74-12.79 58.74-13.77L58.74-13.77Q58.74-15.92 58.45-17.99 58.15-20.07 57.91-22.22L57.91-22.22Q57.86-22.46 57.86-22.9L57.86-22.9Q57.86-23.63 58.11-24.37 58.35-25.1 58.79-25.68 59.23-26.27 59.86-26.64 60.5-27 61.28-27L61.28-27Q62.35-27 63.18-26.25 64.01-25.49 64.58-24.29 65.14-23.1 65.5-21.61 65.87-20.12 66.09-18.68 66.31-17.24 66.38-15.97 66.46-14.7 66.46-13.96ZM86.38-18.26L86.38-18.26Q85.69-18.21 85.21-18.38 84.72-18.55 84.23-18.75L84.23-18.75Q83.79-18.95 83.35-19.12 82.91-19.29 82.37-19.24L82.37-19.24Q81.4-19.19 80.64-18.7 79.88-18.21 79.27-17.48 78.66-16.75 78.22-15.84 77.78-14.94 77.54-14.06L77.54-14.06Q77.39-13.48 77.32-12.28 77.25-11.08 77.25-9.72L77.25-9.72Q77.2-8.3 77.2-7.03 77.2-5.76 77.1-5.03L77.1-5.03Q77.05-4.25 76.86-3.2 76.66-2.15 76.25-1.22 75.83-0.29 75.15 0.34 74.46 0.98 73.39 0.98L73.39 0.98Q72.56 0.98 71.95 0.49 71.34 0 70.92-0.81 70.51-1.61 70.24-2.69 69.97-3.76 69.82-4.88L69.82-4.88Q69.68-6.05 69.6-7.23 69.53-8.4 69.51-9.45 69.48-10.5 69.51-11.38 69.53-12.26 69.53-12.79L69.53-12.79Q69.48-14.5 69.36-16.24 69.24-17.97 69.24-19.68L69.24-19.68Q69.24-20.75 69.34-22.07 69.43-23.39 69.87-24.54 70.31-25.68 71.17-26.46 72.02-27.25 73.54-27.25L73.54-27.25Q74.37-27.25 74.95-26.71 75.54-26.17 75.9-25.39 76.27-24.61 76.46-23.73 76.66-22.85 76.71-22.12L76.71-22.12Q77.88-24.02 79.35-25.22 80.81-26.42 83.15-26.51L83.15-26.51Q84.33-26.56 85.47-26.29 86.62-26.03 87.57-25.42 88.53-24.8 89.14-23.83 89.75-22.85 89.79-21.53L89.79-21.53Q89.89-19.97 88.87-19.14 87.84-18.31 86.38-18.26ZM123.88-24.85L123.88-24.85Q123.88-23.93 123.66-22.9 123.44-21.88 122.95-21 122.46-20.12 121.68-19.53 120.9-18.95 119.78-18.95L119.78-18.95Q118.07-18.95 117.24-19.56 116.41-20.17 116.06-21.09 115.72-22.02 115.7-23.07 115.67-24.12 115.63-25.05 115.58-25.98 115.31-26.59 115.04-27.2 114.16-27.2L114.16-27.2Q113.18-27.2 112.45-26.49 111.72-25.78 111.18-24.66 110.64-23.54 110.28-22.12 109.91-20.7 109.69-19.31 109.47-17.92 109.38-16.67 109.28-15.43 109.28-14.65L109.28-14.65Q109.28-13.62 109.35-12.21 109.42-10.79 109.81-9.5 110.21-8.2 110.99-7.3 111.77-6.4 113.23-6.4L113.23-6.4Q114.21-6.4 115.14-6.64 116.06-6.88 116.99-7.2 117.92-7.52 118.87-7.76 119.82-8.01 120.8-8.01L120.8-8.01Q121.92-8.01 122.66-7.1 123.39-6.2 123.39-5.08L123.39-5.08Q123.39-3.52 122.41-2.17 121.44-0.83 120 0.2 118.55 1.22 116.87 1.81 115.19 2.39 113.82 2.39L113.82 2.39Q110.3 2.39 107.86 0.81 105.42-0.78 103.91-3.3 102.39-5.81 101.73-8.91 101.07-12.01 101.07-15.09L101.07-15.09Q101.07-17.14 101.46-19.58 101.86-22.02 102.64-24.49 103.42-26.95 104.61-29.25 105.81-31.54 107.42-33.3 109.03-35.06 111.06-36.13 113.09-37.21 115.53-37.21L115.53-37.21Q117.92-37.21 119.53-36.01 121.14-34.81 122.12-32.98 123.1-31.15 123.49-28.98 123.88-26.81 123.88-24.85ZM133.89-34.08L133.89-34.08Q133.89-33.4 133.52-32.86 133.15-32.32 132.57-31.91 131.98-31.49 131.3-31.27 130.62-31.05 130.03-31.05L130.03-31.05Q129.05-31.05 128.32-31.54 127.59-32.03 127.59-33.06L127.59-33.06Q127.59-33.79 127.95-34.35 128.32-34.91 128.86-35.28 129.39-35.64 130.08-35.84 130.76-36.04 131.4-36.04L131.4-36.04Q132.32-36.04 133.11-35.6 133.89-35.16 133.89-34.08ZM134.28-17.48L134.28-17.48Q134.28-16.8 134.28-16.04 134.28-15.28 134.23-14.6L134.23-14.6Q134.18-13.77 134.18-12.38 134.18-10.99 134.08-9.38 133.98-7.76 133.76-6.1 133.54-4.44 133.06-3.08 132.57-1.71 131.76-0.85 130.96 0 129.74 0.05L129.74 0.05Q128.81 0.1 128.17-0.68 127.54-1.46 127.12-2.71 126.71-3.96 126.51-5.49 126.32-7.03 126.22-8.47 126.12-9.91 126.12-11.13 126.12-12.35 126.12-12.94L126.12-12.94Q126.12-13.72 126.12-15.16 126.12-16.6 126.22-18.26 126.32-19.92 126.59-21.63 126.86-23.34 127.37-24.76 127.88-26.17 128.71-27.05 129.54-27.93 130.81-27.93L130.81-27.93Q132.13-27.93 132.81-26.61 133.5-25.29 133.84-23.54 134.18-21.78 134.23-20.04 134.28-18.31 134.28-17.48ZM151.61 1.37L151.61 1.37Q150.78 1.37 150.29 0.61 149.8-0.15 149.56-1.12 149.32-2.1 149.24-3.1 149.17-4.1 149.17-4.64L149.17-4.64Q149.17-6.1 149.34-7.57 149.51-9.03 149.73-10.5 149.95-11.96 150.12-13.43 150.29-14.89 150.29-16.36L150.29-16.36Q150.29-16.94 150.24-17.63 150.2-18.31 150.02-18.92 149.85-19.53 149.46-19.92 149.07-20.31 148.44-20.31L148.44-20.31Q148-20.31 147.46-19.6 146.92-18.9 146.46-17.99 146-17.09 145.68-16.19 145.36-15.28 145.36-14.84L145.36-14.84Q145.36-13.77 145.39-12.67 145.41-11.57 145.41-10.45L145.41-10.45 145.41-7.62Q145.36-6.74 145.26-5.81 145.17-4.88 144.97-4L144.97-4Q144.82-3.13 144.53-2.32 144.24-1.51 143.77-0.9 143.31-0.29 142.68 0.1 142.04 0.49 141.16 0.49L141.16 0.49Q140.19 0.49 139.55-0.15 138.92-0.78 138.53-1.78 138.13-2.78 137.96-4.03 137.79-5.27 137.72-6.47 137.65-7.67 137.67-8.67 137.7-9.67 137.7-10.25L137.7-10.25 137.7-12.55Q137.7-14.4 137.62-16.21 137.55-18.02 137.55-19.82L137.55-19.82Q137.55-20.8 137.57-22.31 137.6-23.83 137.94-25.27 138.28-26.71 139.06-27.73 139.84-28.76 141.36-28.76L141.36-28.76Q142.04-28.76 142.58-28.32 143.12-27.88 143.53-27.25 143.95-26.61 144.21-25.88 144.48-25.15 144.63-24.61L144.63-24.61Q145.12-25.29 145.78-25.93 146.44-26.56 147.27-27.05 148.1-27.54 149.12-27.83 150.15-28.13 151.46-28.13L151.46-28.13Q153.96-28.13 155.35-26.93 156.74-25.73 157.4-23.95 158.06-22.17 158.2-20.12 158.35-18.07 158.35-16.41L158.35-16.41Q158.35-15.58 158.2-13.94 158.06-12.3 157.74-10.33 157.42-8.35 156.88-6.27 156.35-4.2 155.62-2.49 154.88-0.78 153.88 0.29 152.88 1.37 151.61 1.37ZM181.54-8.69L181.54-8.69Q181.54-7.03 180.49-5.44 179.44-3.86 177.86-2.61 176.27-1.37 174.46-0.61 172.66 0.15 171.14 0.15L171.14 0.15Q168.55 0.15 166.53-1.15 164.5-2.44 163.13-4.44 161.77-6.45 161.06-8.86 160.35-11.28 160.35-13.57L160.35-13.57Q160.35-16.02 161.04-18.8 161.72-21.58 163.11-23.93 164.5-26.27 166.63-27.83 168.75-29.39 171.68-29.39L171.68-29.39Q173.34-29.39 174.85-28.83 176.37-28.27 177.49-27.25 178.61-26.22 179.3-24.8 179.98-23.39 179.98-21.63L179.98-21.63Q179.98-19.34 179-17.33 178.03-15.33 176.42-13.87 174.8-12.4 172.71-11.5 170.61-10.6 168.41-10.5L168.41-10.5Q168.6-9.08 169.56-8.45 170.51-7.81 171.83-7.81L171.83-7.81Q172.8-7.81 173.73-8.3 174.66-8.79 175.54-9.4 176.42-10.01 177.27-10.5 178.13-10.99 179-10.99L179-10.99Q179.98-10.99 180.76-10.35 181.54-9.72 181.54-8.69ZM173.63-20.65L173.63-20.65Q173.63-21.29 173.29-21.97 172.95-22.66 172.22-22.66L172.22-22.66Q171.14-22.66 170.41-22.09 169.68-21.53 169.19-20.68 168.7-19.82 168.43-18.85 168.16-17.87 168.12-17.04L168.12-17.04Q168.8-17.19 169.75-17.43 170.7-17.68 171.56-18.09 172.41-18.51 173.02-19.14 173.63-19.78 173.63-20.65ZM213.13-16.11L213.13-16.11Q213.13-15.19 213.13-13.6 213.13-12.01 213.06-10.16 212.99-8.3 212.74-6.42 212.5-4.54 211.99-3.03 211.47-1.51 210.69-0.54 209.91 0.44 208.69 0.44L208.69 0.44Q207.62 0.44 207.06-0.46 206.49-1.37 206.25-2.59 206.01-3.81 205.98-5.08 205.96-6.35 205.96-7.08L205.96-7.08Q205.96-9.28 206.1-11.38 206.25-13.48 206.25-15.67L206.25-15.67Q206.25-15.92 206.25-16.55 206.25-17.19 206.15-17.82 206.05-18.46 205.83-18.95 205.62-19.43 205.18-19.43L205.18-19.43Q204.3-19.43 203.76-18.53 203.22-17.63 202.88-16.41 202.54-15.19 202.39-13.99 202.25-12.79 202.2-12.21L202.2-12.21Q202.1-11.57 202.03-10.3 201.95-9.03 201.83-7.52 201.71-6.01 201.44-4.42 201.17-2.83 200.76-1.54 200.34-0.24 199.71 0.59 199.07 1.42 198.14 1.42L198.14 1.42Q196.97 1.42 196.34 0.39 195.7-0.63 195.41-2 195.12-3.37 195.04-4.79 194.97-6.2 194.97-6.98L194.97-6.98Q194.97-7.81 195-8.59 195.02-9.38 195.02-10.21L195.02-10.21Q195.02-10.55 195.02-11.33 195.02-12.11 195-13.06 194.97-14.01 194.9-15.04 194.82-16.06 194.68-16.92 194.53-17.77 194.24-18.31 193.95-18.85 193.55-18.85L193.55-18.85Q192.92-18.85 192.38-18.04 191.85-17.24 191.46-16.14 191.06-15.04 190.84-13.96 190.63-12.89 190.63-12.4L190.63-12.4 190.63-12.11Q190.63-9.77 190.92-7.52 191.21-5.27 191.21-2.93L191.21-2.93Q191.21-1.56 190.33-0.42 189.45 0.73 187.89 0.73L187.89 0.73Q186.77 0.73 186.04-0.12 185.3-0.98 184.81-2.34 184.33-3.71 184.06-5.35 183.79-6.98 183.69-8.57 183.59-10.16 183.57-11.45 183.54-12.74 183.54-13.38L183.54-13.38Q183.54-14.11 183.52-15.53 183.5-16.94 183.57-18.6 183.64-20.26 183.84-22 184.03-23.73 184.47-25.15 184.91-26.56 185.62-27.47 186.33-28.37 187.45-28.37L187.45-28.37Q188.72-28.37 189.53-27.69 190.33-27 190.33-25.63L190.33-25.63Q190.33-25.34 190.31-25.05 190.28-24.76 190.23-24.51L190.23-24.51Q190.77-25.29 191.55-26.1 192.33-26.9 193.24-27.56 194.14-28.22 195.17-28.64 196.19-29.05 197.22-29.05L197.22-29.05Q198.19-29.05 198.97-28.52 199.76-27.98 200.34-27.17 200.93-26.37 201.32-25.44 201.71-24.51 201.86-23.68L201.86-23.68Q202.34-24.56 203.05-25.46 203.76-26.37 204.59-27.05 205.42-27.73 206.42-28.17 207.42-28.61 208.5-28.61L208.5-28.61Q209.52-28.61 210.25-27.88 210.99-27.15 211.52-26 212.06-24.85 212.35-23.41 212.65-21.97 212.84-20.58 213.04-19.19 213.09-17.99 213.13-16.8 213.13-16.11ZM237.11-6.88L237.11-6.88Q237.11-6.01 237.04-4.59 236.96-3.17 236.62-1.83 236.28-0.49 235.55 0.49 234.81 1.46 233.5 1.46L233.5 1.46Q231.69 1.46 230.71 0.29 229.74-0.88 229.79-2.64L229.79-2.64Q228.22-1.27 226.25-0.49 224.27 0.29 222.22 0.29L222.22 0.29Q220.8 0.29 219.53-0.39 218.26-1.07 217.29-2.15 216.31-3.22 215.72-4.57 215.14-5.91 215.14-7.23L215.14-7.23Q215.14-9.57 216.58-11.33 218.02-13.09 220.12-14.33 222.22-15.58 224.58-16.31 226.95-17.04 228.81-17.29L228.81-17.29Q228.81-17.53 228.83-17.72 228.86-17.92 228.86-18.16L228.86-18.16Q228.86-19.68 228.03-20.61 227.2-21.53 225.68-21.53L225.68-21.53Q224.46-21.53 223.58-21.12 222.71-20.7 221.92-20.19 221.14-19.68 220.36-19.26 219.58-18.85 218.6-18.85L218.6-18.85Q217.53-18.85 216.77-19.53 216.02-20.21 216.02-21.29L216.02-21.29Q216.02-22.9 216.97-24.22 217.92-25.54 219.36-26.44 220.8-27.34 222.49-27.86 224.17-28.37 225.59-28.37L225.59-28.37Q226.9-28.37 228.22-28.05 229.54-27.73 230.71-27.08 231.88-26.42 232.84-25.46 233.79-24.51 234.38-23.24L234.38-23.24Q235.25-21.44 235.79-19.41 236.33-17.38 236.62-15.26 236.91-13.13 237.01-11.01 237.11-8.89 237.11-6.88ZM229.3-8.45L229.3-8.45 229.15-11.77Q229.05-11.77 228.96-11.79 228.86-11.82 228.76-11.82L228.76-11.82Q228.13-11.82 227.17-11.5 226.22-11.18 225.34-10.62 224.46-10.06 223.85-9.38 223.24-8.69 223.24-7.96L223.24-7.96Q223.24-7.28 223.73-7.03 224.22-6.79 224.85-6.79L224.85-6.79Q225.93-6.79 227.15-7.35 228.37-7.91 229.3-8.45ZM251.42 1.76L251.42 1.76Q247.95 1.76 246.02 0.85 244.09-0.05 243.14-1.71 242.19-3.37 241.99-5.71 241.8-8.06 241.8-10.94L241.8-10.94Q241.8-13.23 241.94-15.55 242.09-17.87 242.38-20.51L242.38-20.51Q241.7-20.51 241.31-20.48 240.92-20.46 240.67-20.46L240.67-20.46Q239.11-20.46 237.96-21.14 236.82-21.83 236.82-23.24L236.82-23.24Q236.82-24.12 237.48-24.8 238.13-25.49 239.16-25.98 240.19-26.46 241.38-26.76 242.58-27.05 243.65-27.15L243.65-27.15Q243.65-28.52 243.85-30.18 244.04-31.84 244.56-33.28 245.07-34.72 245.95-35.69 246.83-36.67 248.19-36.67L248.19-36.67Q248.97-36.67 249.58-36.21 250.2-35.74 250.59-35.03 250.98-34.33 251.17-33.45 251.37-32.57 251.37-31.74L251.37-31.74Q251.37-30.76 251.22-29.74 251.07-28.71 250.68-27.2L250.68-27.2Q251.51-27.29 251.81-27.32 252.1-27.34 252.34-27.34L252.34-27.34Q253.17-27.34 254.08-27.2 254.98-27.05 255.74-26.71 256.49-26.37 256.98-25.81 257.47-25.24 257.47-24.46L257.47-24.46Q257.47-23.58 256.76-22.9 256.05-22.22 254.98-21.73 253.91-21.24 252.69-20.97 251.46-20.7 250.39-20.61L250.39-20.61Q250.1-18.6 249.98-16.92 249.85-15.23 249.71-13.53L249.71-13.53Q249.61-12.7 249.54-11.84 249.46-10.99 249.46-10.11L249.46-10.11Q249.46-9.47 249.51-8.62 249.56-7.76 249.85-6.98 250.15-6.2 250.78-5.64 251.42-5.08 252.54-5.08L252.54-5.08Q253.22-5.08 253.96-5.2 254.69-5.32 255.42-5.32L255.42-5.32Q256.69-5.32 257.25-4.44 257.81-3.56 257.81-2.2L257.81-2.2Q257.81-1.17 257.2-0.42 256.59 0.34 255.66 0.81 254.74 1.27 253.59 1.51 252.44 1.76 251.42 1.76ZM266.85-34.08L266.85-34.08Q266.85-33.4 266.48-32.86 266.11-32.32 265.53-31.91 264.94-31.49 264.26-31.27 263.57-31.05 262.99-31.05L262.99-31.05Q262.01-31.05 261.28-31.54 260.55-32.03 260.55-33.06L260.55-33.06Q260.55-33.79 260.91-34.35 261.28-34.91 261.82-35.28 262.35-35.64 263.04-35.84 263.72-36.04 264.36-36.04L264.36-36.04Q265.28-36.04 266.06-35.6 266.85-35.16 266.85-34.08ZM267.24-17.48L267.24-17.48Q267.24-16.8 267.24-16.04 267.24-15.28 267.19-14.6L267.19-14.6Q267.14-13.77 267.14-12.38 267.14-10.99 267.04-9.38 266.94-7.76 266.72-6.1 266.5-4.44 266.02-3.08 265.53-1.71 264.72-0.85 263.92 0 262.7 0.05L262.7 0.05Q261.77 0.1 261.13-0.68 260.5-1.46 260.08-2.71 259.67-3.96 259.47-5.49 259.28-7.03 259.18-8.47 259.08-9.91 259.08-11.13 259.08-12.35 259.08-12.94L259.08-12.94Q259.08-13.72 259.08-15.16 259.08-16.6 259.18-18.26 259.28-19.92 259.55-21.63 259.81-23.34 260.33-24.76 260.84-26.17 261.67-27.05 262.5-27.93 263.77-27.93L263.77-27.93Q265.09-27.93 265.77-26.61 266.46-25.29 266.8-23.54 267.14-21.78 267.19-20.04 267.24-18.31 267.24-17.48ZM288.82-18.75L288.82-18.75Q288.82-18.51 288.77-18.24 288.72-17.97 288.62-17.72L288.62-17.72Q288.18-16.6 287.26-15.84 286.33-15.09 285.06-15.09L285.06-15.09Q283.15-15.09 282.47-16.99L282.47-16.99Q282.37-17.24 282.37-17.55 282.37-17.87 282.32-18.21L282.32-18.21 282.32-19.63Q282.23-20.31 281.98-20.7 281.74-21.09 281.15-21.09L281.15-21.09Q280.32-21.09 279.57-20.04 278.81-18.99 278.25-17.55 277.69-16.11 277.34-14.6 277-13.09 277-12.16L277-12.16Q277-11.43 277.1-10.38 277.2-9.33 277.49-8.35 277.78-7.37 278.3-6.67 278.81-5.96 279.64-5.96L279.64-5.96Q280.47-5.96 281.18-6.47 281.88-6.98 282.57-7.67L282.57-7.67Q283.2-8.25 283.96-8.89 284.72-9.52 285.69-9.52L285.69-9.52Q286.91-9.52 287.62-8.64 288.33-7.76 288.33-6.64L288.33-6.64Q288.33-4.98 287.45-3.54 286.57-2.1 285.25-1.05 283.94 0 282.32 0.61 280.71 1.22 279.25 1.22L279.25 1.22Q276.61 1.22 274.78-0.1 272.95-1.42 271.83-3.44 270.7-5.47 270.21-7.86 269.73-10.25 269.73-12.4L269.73-12.4Q269.73-14.89 270.41-17.8 271.09-20.7 272.51-23.19 273.93-25.68 276.15-27.34 278.37-29 281.45-29L281.45-29Q283.35-29 284.74-28.17 286.13-27.34 287.04-26 287.94-24.66 288.4-23 288.87-21.34 288.87-19.73L288.87-19.73Q288.87-19.48 288.87-19.24 288.87-18.99 288.82-18.75ZM329.49-17.14L329.49-17.14Q329.49-15.14 329.3-13.01 329.1-10.89 328.61-8.89 328.13-6.88 327.27-5.1 326.42-3.32 325.1-1.98 323.78-0.63 321.92 0.15 320.07 0.93 317.58 0.93L317.58 0.93Q313.92 0.93 311.21-0.78 308.5-2.49 306.69-5.15 304.88-7.81 304-11.11 303.13-14.4 303.13-17.63L303.13-17.63Q303.13-17.97 303.13-18.26 303.13-18.55 303.17-18.8L303.17-18.8Q303.22-19.82 303.34-21.58 303.47-23.34 303.76-25.34 304.05-27.34 304.52-29.44 304.98-31.54 305.74-33.2 306.49-34.86 307.57-35.94 308.64-37.01 310.11-37.01L310.11-37.01Q311.18-37.01 311.91-36.38 312.65-35.74 313.11-34.79 313.57-33.84 313.77-32.79 313.96-31.74 313.96-30.86L313.96-30.86Q313.96-29.54 313.7-28.2 313.43-26.86 313.18-25.54L313.18-25.54Q312.79-23.44 312.55-21.34 312.3-19.24 312.3-17.04L312.3-17.04Q312.3-15.92 312.43-14.31 312.55-12.7 313.04-11.21 313.53-9.72 314.43-8.67 315.33-7.62 316.89-7.62L316.89-7.62Q318.41-7.62 319.31-8.64 320.21-9.67 320.65-11.08 321.09-12.5 321.22-14.06 321.34-15.63 321.34-16.75L321.34-16.75Q321.34-19.97 320.8-23.12 320.26-26.27 319.38-29.39L319.38-29.39Q319.14-30.22 318.97-31.05 318.8-31.88 318.8-32.71L318.8-32.71Q318.8-34.08 319.6-35.11 320.41-36.13 321.88-36.13L321.88-36.13Q323.1-36.13 324.15-35.18 325.2-34.23 326.03-32.69 326.86-31.15 327.47-29.25 328.08-27.34 328.52-25.46 328.96-23.58 329.17-21.88 329.39-20.17 329.44-19.09L329.44-19.09Q329.49-18.6 329.49-18.14 329.49-17.68 329.49-17.14ZM346.58 1.37L346.58 1.37Q345.75 1.37 345.26 0.61 344.78-0.15 344.53-1.12 344.29-2.1 344.21-3.1 344.14-4.1 344.14-4.64L344.14-4.64Q344.14-6.1 344.31-7.57 344.48-9.03 344.7-10.5 344.92-11.96 345.09-13.43 345.26-14.89 345.26-16.36L345.26-16.36Q345.26-16.94 345.21-17.63 345.17-18.31 345-18.92 344.82-19.53 344.43-19.92 344.04-20.31 343.41-20.31L343.41-20.31Q342.97-20.31 342.43-19.6 341.89-18.9 341.43-17.99 340.97-17.09 340.65-16.19 340.33-15.28 340.33-14.84L340.33-14.84Q340.33-13.77 340.36-12.67 340.38-11.57 340.38-10.45L340.38-10.45 340.38-7.62Q340.33-6.74 340.23-5.81 340.14-4.88 339.94-4L339.94-4Q339.79-3.13 339.5-2.32 339.21-1.51 338.75-0.9 338.28-0.29 337.65 0.1 337.01 0.49 336.13 0.49L336.13 0.49Q335.16 0.49 334.52-0.15 333.89-0.78 333.5-1.78 333.11-2.78 332.93-4.03 332.76-5.27 332.69-6.47 332.62-7.67 332.64-8.67 332.67-9.67 332.67-10.25L332.67-10.25 332.67-12.55Q332.67-14.4 332.59-16.21 332.52-18.02 332.52-19.82L332.52-19.82Q332.52-20.8 332.54-22.31 332.57-23.83 332.91-25.27 333.25-26.71 334.03-27.73 334.81-28.76 336.33-28.76L336.33-28.76Q337.01-28.76 337.55-28.32 338.09-27.88 338.5-27.25 338.92-26.61 339.18-25.88 339.45-25.15 339.6-24.61L339.6-24.61Q340.09-25.29 340.75-25.93 341.41-26.56 342.24-27.05 343.07-27.54 344.09-27.83 345.12-28.13 346.44-28.13L346.44-28.13Q348.93-28.13 350.32-26.93 351.71-25.73 352.37-23.95 353.03-22.17 353.17-20.12 353.32-18.07 353.32-16.41L353.32-16.41Q353.32-15.58 353.17-13.94 353.03-12.3 352.71-10.33 352.39-8.35 351.86-6.27 351.32-4.2 350.59-2.49 349.85-0.78 348.85 0.29 347.85 1.37 346.58 1.37ZM364.11-34.08L364.11-34.08Q364.11-33.4 363.75-32.86 363.38-32.32 362.79-31.91 362.21-31.49 361.52-31.27 360.84-31.05 360.25-31.05L360.25-31.05Q359.28-31.05 358.54-31.54 357.81-32.03 357.81-33.06L357.81-33.06Q357.81-33.79 358.18-34.35 358.54-34.91 359.08-35.28 359.62-35.64 360.3-35.84 360.99-36.04 361.62-36.04L361.62-36.04Q362.55-36.04 363.33-35.6 364.11-35.16 364.11-34.08ZM364.5-17.48L364.5-17.48Q364.5-16.8 364.5-16.04 364.5-15.28 364.45-14.6L364.45-14.6Q364.4-13.77 364.4-12.38 364.4-10.99 364.31-9.38 364.21-7.76 363.99-6.1 363.77-4.44 363.28-3.08 362.79-1.71 361.99-0.85 361.18 0 359.96 0.05L359.96 0.05Q359.03 0.1 358.4-0.68 357.76-1.46 357.35-2.71 356.93-3.96 356.74-5.49 356.54-7.03 356.45-8.47 356.35-9.91 356.35-11.13 356.35-12.35 356.35-12.94L356.35-12.94Q356.35-13.72 356.35-15.16 356.35-16.6 356.45-18.26 356.54-19.92 356.81-21.63 357.08-23.34 357.59-24.76 358.11-26.17 358.94-27.05 359.77-27.93 361.04-27.93L361.04-27.93Q362.35-27.93 363.04-26.61 363.72-25.29 364.06-23.54 364.4-21.78 364.45-20.04 364.5-18.31 364.5-17.48ZM389.01-17.48L389.01-17.48Q387.74-14.11 386.23-10.45 384.72-6.79 382.96-3.61L382.96-3.61Q381.88-1.66 380.57-0.37 379.25 0.93 377.54 0.93L377.54 0.93Q376.17 0.93 374.88-0.46 373.58-1.86 372.49-3.78 371.39-5.71 370.58-7.69 369.78-9.67 369.38-10.84L369.38-10.84Q368.99-12.16 368.51-13.67 368.02-15.19 367.63-16.75L367.63-16.75Q367.24-18.31 366.99-19.85 366.75-21.39 366.75-22.75L366.75-22.75Q366.75-24.66 367.43-25.88 368.12-27.1 370.12-27.1L370.12-27.1Q370.9-27.1 371.53-26.64 372.17-26.17 372.71-25.34 373.24-24.51 373.73-23.41 374.22-22.31 374.66-21L374.66-21Q375.1-19.73 375.49-18.36 375.88-16.99 376.27-15.72L376.27-15.72Q376.66-14.45 377.08-13.26 377.49-12.06 378.17-10.89L378.17-10.89Q378.52-11.77 378.96-12.89 379.39-14.01 379.91-15.28 380.42-16.55 381.01-17.9 381.59-19.24 382.28-20.51L382.28-20.51Q383.59-23.14 385.08-25 386.57-26.86 388.04-26.86L388.04-26.86Q389.4-26.86 389.99-26.03 390.58-25.2 390.58-23.88L390.58-23.88Q390.58-22.56 390.14-20.9 389.7-19.24 389.01-17.48ZM412.74-8.69L412.74-8.69Q412.74-7.03 411.69-5.44 410.64-3.86 409.06-2.61 407.47-1.37 405.66-0.61 403.86 0.15 402.34 0.15L402.34 0.15Q399.76 0.15 397.73-1.15 395.7-2.44 394.34-4.44 392.97-6.45 392.26-8.86 391.55-11.28 391.55-13.57L391.55-13.57Q391.55-16.02 392.24-18.8 392.92-21.58 394.31-23.93 395.7-26.27 397.83-27.83 399.95-29.39 402.88-29.39L402.88-29.39Q404.54-29.39 406.05-28.83 407.57-28.27 408.69-27.25 409.81-26.22 410.5-24.8 411.18-23.39 411.18-21.63L411.18-21.63Q411.18-19.34 410.21-17.33 409.23-15.33 407.62-13.87 406.01-12.4 403.91-11.5 401.81-10.6 399.61-10.5L399.61-10.5Q399.8-9.08 400.76-8.45 401.71-7.81 403.03-7.81L403.03-7.81Q404-7.81 404.93-8.3 405.86-8.79 406.74-9.4 407.62-10.01 408.47-10.5 409.33-10.99 410.21-10.99L410.21-10.99Q411.18-10.99 411.96-10.35 412.74-9.72 412.74-8.69ZM404.83-20.65L404.83-20.65Q404.83-21.29 404.49-21.97 404.15-22.66 403.42-22.66L403.42-22.66Q402.34-22.66 401.61-22.09 400.88-21.53 400.39-20.68 399.9-19.82 399.63-18.85 399.37-17.87 399.32-17.04L399.32-17.04Q400-17.19 400.95-17.43 401.9-17.68 402.76-18.09 403.61-18.51 404.22-19.14 404.83-19.78 404.83-20.65ZM431.64-18.26L431.64-18.26Q430.96-18.21 430.47-18.38 429.98-18.55 429.49-18.75L429.49-18.75Q429.05-18.95 428.61-19.12 428.17-19.29 427.64-19.24L427.64-19.24Q426.66-19.19 425.9-18.7 425.15-18.21 424.54-17.48 423.93-16.75 423.49-15.84 423.05-14.94 422.8-14.06L422.8-14.06Q422.66-13.48 422.58-12.28 422.51-11.08 422.51-9.72L422.51-9.72Q422.46-8.3 422.46-7.03 422.46-5.76 422.36-5.03L422.36-5.03Q422.31-4.25 422.12-3.2 421.92-2.15 421.51-1.22 421.09-0.29 420.41 0.34 419.73 0.98 418.65 0.98L418.65 0.98Q417.82 0.98 417.21 0.49 416.6 0 416.19-0.81 415.77-1.61 415.5-2.69 415.23-3.76 415.09-4.88L415.09-4.88Q414.94-6.05 414.87-7.23 414.79-8.4 414.77-9.45 414.75-10.5 414.77-11.38 414.79-12.26 414.79-12.79L414.79-12.79Q414.75-14.5 414.62-16.24 414.5-17.97 414.5-19.68L414.5-19.68Q414.5-20.75 414.6-22.07 414.7-23.39 415.14-24.54 415.58-25.68 416.43-26.46 417.29-27.25 418.8-27.25L418.8-27.25Q419.63-27.25 420.21-26.71 420.8-26.17 421.17-25.39 421.53-24.61 421.73-23.73 421.92-22.85 421.97-22.12L421.97-22.12Q423.14-24.02 424.61-25.22 426.07-26.42 428.42-26.51L428.42-26.51Q429.59-26.56 430.74-26.29 431.88-26.03 432.84-25.42 433.79-24.8 434.4-23.83 435.01-22.85 435.06-21.53L435.06-21.53Q435.16-19.97 434.13-19.14 433.11-18.31 431.64-18.26ZM450.1-26.86L450.1-26.86Q450.1-25.44 449.15-24.76 448.19-24.07 447.02-23.46 445.85-22.85 444.9-22.02 443.95-21.19 443.95-19.53L443.95-19.53Q443.95-18.65 444.36-18.02 444.78-17.38 445.39-16.87 446-16.36 446.73-15.82 447.46-15.28 448.07-14.6 448.68-13.92 449.1-12.94 449.51-11.96 449.51-10.55L449.51-10.55Q449.51-8.5 448.46-6.52 447.41-4.54 445.78-3 444.14-1.46 442.09-0.54 440.04 0.39 438.04 0.39L438.04 0.39Q437.21 0.39 436.38 0.27 435.55 0.15 434.89-0.2 434.23-0.54 433.79-1.15 433.35-1.76 433.35-2.73L433.35-2.73Q433.35-4.1 433.89-4.86 434.42-5.62 435.25-6.05 436.08-6.49 437.04-6.74 437.99-6.98 438.82-7.35 439.65-7.71 440.19-8.3 440.72-8.89 440.72-9.96L440.72-9.96Q440.72-10.99 439.92-12.08 439.11-13.18 438.13-14.43 437.16-15.67 436.35-17.09 435.55-18.51 435.55-20.21L435.55-20.21Q435.55-22.31 436.4-24.1 437.26-25.88 438.7-27.2 440.14-28.52 441.99-29.27 443.85-30.03 445.9-30.03L445.9-30.03Q446.68-30.03 447.44-29.88 448.19-29.74 448.78-29.37 449.37-29 449.73-28.39 450.1-27.78 450.1-26.86ZM472.51-8.69L472.51-8.69Q472.51-7.03 471.46-5.44 470.41-3.86 468.82-2.61 467.24-1.37 465.43-0.61 463.62 0.15 462.11 0.15L462.11 0.15Q459.52 0.15 457.5-1.15 455.47-2.44 454.1-4.44 452.73-6.45 452.03-8.86 451.32-11.28 451.32-13.57L451.32-13.57Q451.32-16.02 452-18.8 452.69-21.58 454.08-23.93 455.47-26.27 457.59-27.83 459.72-29.39 462.65-29.39L462.65-29.39Q464.31-29.39 465.82-28.83 467.33-28.27 468.46-27.25 469.58-26.22 470.26-24.8 470.95-23.39 470.95-21.63L470.95-21.63Q470.95-19.34 469.97-17.33 468.99-15.33 467.38-13.87 465.77-12.4 463.67-11.5 461.57-10.6 459.38-10.5L459.38-10.5Q459.57-9.08 460.52-8.45 461.47-7.81 462.79-7.81L462.79-7.81Q463.77-7.81 464.7-8.3 465.63-8.79 466.5-9.4 467.38-10.01 468.24-10.5 469.09-10.99 469.97-10.99L469.97-10.99Q470.95-10.99 471.73-10.35 472.51-9.72 472.51-8.69ZM464.6-20.65L464.6-20.65Q464.6-21.29 464.26-21.97 463.92-22.66 463.18-22.66L463.18-22.66Q462.11-22.66 461.38-22.09 460.64-21.53 460.16-20.68 459.67-19.82 459.4-18.85 459.13-17.87 459.08-17.04L459.08-17.04Q459.77-17.19 460.72-17.43 461.67-17.68 462.52-18.09 463.38-18.51 463.99-19.14 464.6-19.78 464.6-20.65ZM510.89-7.23L510.89-7.23Q510.89-6.25 510.72-4.88 510.55-3.52 510.06-2.27 509.57-1.03 508.74-0.17 507.91 0.68 506.54 0.68L506.54 0.68Q504.74 0.68 503.83-0.63 502.93-1.95 502.54-3.78 502.15-5.62 502.08-7.52 502-9.42 501.95-10.55L501.95-10.55Q498.44-9.96 495.02-9.52L495.02-9.52Q494.92-8.4 494.6-6.74 494.29-5.08 493.63-3.54 492.97-2 491.92-0.88 490.87 0.24 489.36 0.24L489.36 0.24Q488.18 0.24 487.52-0.61 486.87-1.46 486.52-2.64 486.18-3.81 486.11-5.05 486.04-6.3 486.04-7.13L486.04-7.13Q486.04-9.91 486.47-12.62 486.91-15.33 487.5-18.02L487.5-18.02Q487.79-19.43 488.28-21.34 488.77-23.24 489.48-25.27 490.19-27.29 491.14-29.27 492.09-31.25 493.31-32.81 494.53-34.38 496.09-35.35 497.66-36.33 499.56-36.33L499.56-36.33Q501.42-36.33 502.78-35.5 504.15-34.67 505.18-33.3 506.2-31.93 506.88-30.2 507.57-28.47 508.03-26.68 508.5-24.9 508.81-23.19 509.13-21.48 509.38-20.17L509.38-20.17Q510.01-16.99 510.45-13.75 510.89-10.5 510.89-7.23ZM501.46-17.68L501.46-19.09Q501.46-19.68 501.39-21.02 501.32-22.36 501.07-23.71 500.83-25.05 500.32-26.1 499.8-27.15 498.93-27.15L498.93-27.15Q498.44-27.15 498-26.49 497.56-25.83 497.22-24.83 496.88-23.83 496.61-22.61 496.34-21.39 496.14-20.26 495.95-19.14 495.85-18.24 495.75-17.33 495.7-16.94L495.7-16.94Q498.63-17.19 501.46-17.68L501.46-17.68ZM538.38 0.63L538.38 0.63Q536.82 0.63 535.57-1.03 534.33-2.69 533.4-5 532.47-7.32 531.86-9.77 531.25-12.21 530.96-13.82L530.96-13.82Q530.57-12.84 529.91-11.43 529.25-10.01 528.39-8.45 527.54-6.88 526.56-5.3 525.59-3.71 524.54-2.44 523.49-1.17 522.44-0.39 521.39 0.39 520.41 0.39L520.41 0.39Q519.09 0.39 518.09-0.88 517.09-2.15 516.41-4.2 515.72-6.25 515.26-8.74 514.79-11.23 514.55-13.72 514.31-16.21 514.21-18.36 514.11-20.51 514.11-21.83L514.11-21.83Q514.11-23.05 514.23-24.17 514.36-25.29 514.72-26.17 515.09-27.05 515.8-27.56 516.5-28.08 517.68-28.08L517.68-28.08Q518.8-28.08 519.6-27.25 520.41-26.42 520.95-25.07 521.48-23.73 521.83-22.05 522.17-20.36 522.36-18.63 522.56-16.89 522.63-15.26 522.71-13.62 522.75-12.45L522.75-12.45Q523.05-13.48 523.58-14.97 524.12-16.46 524.76-18.14 525.39-19.82 526.15-21.48 526.9-23.14 527.66-24.46 528.42-25.78 529.15-26.61 529.88-27.44 530.57-27.44L530.57-27.44 530.62-27.44Q531.49-27.44 532.32-26.61 533.15-25.78 533.94-24.46 534.72-23.14 535.4-21.46 536.08-19.78 536.67-18.04 537.26-16.31 537.7-14.67 538.13-13.04 538.43-11.87L538.43-11.87Q538.48-13.28 538.57-15.06 538.67-16.85 538.94-18.65 539.21-20.46 539.67-22.17 540.14-23.88 540.82-25.22 541.5-26.56 542.5-27.37 543.51-28.17 544.82-28.17L544.82-28.17Q546.19-28.17 546.85-27.22 547.51-26.27 547.51-24.9L547.51-24.9Q547.51-23.44 547.14-21 546.78-18.55 546.14-15.7 545.51-12.84 544.65-9.94 543.8-7.03 542.77-4.69 541.75-2.34 540.63-0.85 539.5 0.63 538.38 0.63ZM570.95-6.88L570.95-6.88Q570.95-6.01 570.87-4.59 570.8-3.17 570.46-1.83 570.12-0.49 569.38 0.49 568.65 1.46 567.33 1.46L567.33 1.46Q565.53 1.46 564.55 0.29 563.57-0.88 563.62-2.64L563.62-2.64Q562.06-1.27 560.08-0.49 558.11 0.29 556.05 0.29L556.05 0.29Q554.64 0.29 553.37-0.39 552.1-1.07 551.12-2.15 550.15-3.22 549.56-4.57 548.97-5.91 548.97-7.23L548.97-7.23Q548.97-9.57 550.42-11.33 551.86-13.09 553.96-14.33 556.05-15.58 558.42-16.31 560.79-17.04 562.65-17.29L562.65-17.29Q562.65-17.53 562.67-17.72 562.7-17.92 562.7-18.16L562.7-18.16Q562.7-19.68 561.87-20.61 561.04-21.53 559.52-21.53L559.52-21.53Q558.3-21.53 557.42-21.12 556.54-20.7 555.76-20.19 554.98-19.68 554.2-19.26 553.42-18.85 552.44-18.85L552.44-18.85Q551.37-18.85 550.61-19.53 549.85-20.21 549.85-21.29L549.85-21.29Q549.85-22.9 550.81-24.22 551.76-25.54 553.2-26.44 554.64-27.34 556.32-27.86 558.01-28.37 559.42-28.37L559.42-28.37Q560.74-28.37 562.06-28.05 563.38-27.73 564.55-27.08 565.72-26.42 566.67-25.46 567.63-24.51 568.21-23.24L568.21-23.24Q569.09-21.44 569.63-19.41 570.17-17.38 570.46-15.26 570.75-13.13 570.85-11.01 570.95-8.89 570.95-6.88ZM563.13-8.45L563.13-8.45 562.99-11.77Q562.89-11.77 562.79-11.79 562.7-11.82 562.6-11.82L562.6-11.82Q561.96-11.82 561.01-11.5 560.06-11.18 559.18-10.62 558.3-10.06 557.69-9.38 557.08-8.69 557.08-7.96L557.08-7.96Q557.08-7.28 557.57-7.03 558.06-6.79 558.69-6.79L558.69-6.79Q559.77-6.79 560.99-7.35 562.21-7.91 563.13-8.45ZM581.93-34.08L581.93-34.08Q581.93-33.4 581.57-32.86 581.2-32.32 580.62-31.91 580.03-31.49 579.35-31.27 578.66-31.05 578.08-31.05L578.08-31.05Q577.1-31.05 576.37-31.54 575.63-32.03 575.63-33.06L575.63-33.06Q575.63-33.79 576-34.35 576.37-34.91 576.9-35.28 577.44-35.64 578.13-35.84 578.81-36.04 579.44-36.04L579.44-36.04Q580.37-36.04 581.15-35.6 581.93-35.16 581.93-34.08ZM582.32-17.48L582.32-17.48Q582.32-16.8 582.32-16.04 582.32-15.28 582.28-14.6L582.28-14.6Q582.23-13.77 582.23-12.38 582.23-10.99 582.13-9.38 582.03-7.76 581.81-6.1 581.59-4.44 581.1-3.08 580.62-1.71 579.81-0.85 579 0 577.78 0.05L577.78 0.05Q576.86 0.1 576.22-0.68 575.59-1.46 575.17-2.71 574.76-3.96 574.56-5.49 574.37-7.03 574.27-8.47 574.17-9.91 574.17-11.13 574.17-12.35 574.17-12.94L574.17-12.94Q574.17-13.72 574.17-15.16 574.17-16.6 574.27-18.26 574.37-19.92 574.63-21.63 574.9-23.34 575.42-24.76 575.93-26.17 576.76-27.05 577.59-27.93 578.86-27.93L578.86-27.93Q580.18-27.93 580.86-26.61 581.54-25.29 581.88-23.54 582.23-21.78 582.28-20.04 582.32-18.31 582.32-17.48ZM597.17 1.76L597.17 1.76Q593.7 1.76 591.77 0.85 589.84-0.05 588.89-1.71 587.94-3.37 587.74-5.71 587.55-8.06 587.55-10.94L587.55-10.94Q587.55-13.23 587.7-15.55 587.84-17.87 588.13-20.51L588.13-20.51Q587.45-20.51 587.06-20.48 586.67-20.46 586.43-20.46L586.43-20.46Q584.86-20.46 583.72-21.14 582.57-21.83 582.57-23.24L582.57-23.24Q582.57-24.12 583.23-24.8 583.89-25.49 584.91-25.98 585.94-26.46 587.13-26.76 588.33-27.05 589.4-27.15L589.4-27.15Q589.4-28.52 589.6-30.18 589.79-31.84 590.31-33.28 590.82-34.72 591.7-35.69 592.58-36.67 593.95-36.67L593.95-36.67Q594.73-36.67 595.34-36.21 595.95-35.74 596.34-35.03 596.73-34.33 596.92-33.45 597.12-32.57 597.12-31.74L597.12-31.74Q597.12-30.76 596.97-29.74 596.83-28.71 596.44-27.2L596.44-27.2Q597.27-27.29 597.56-27.32 597.85-27.34 598.1-27.34L598.1-27.34Q598.93-27.34 599.83-27.2 600.73-27.05 601.49-26.71 602.25-26.37 602.73-25.81 603.22-25.24 603.22-24.46L603.22-24.46Q603.22-23.58 602.51-22.9 601.81-22.22 600.73-21.73 599.66-21.24 598.44-20.97 597.22-20.7 596.14-20.61L596.14-20.61Q595.85-18.6 595.73-16.92 595.61-15.23 595.46-13.53L595.46-13.53Q595.36-12.7 595.29-11.84 595.21-10.99 595.21-10.11L595.21-10.11Q595.21-9.47 595.26-8.62 595.31-7.76 595.61-6.98 595.9-6.2 596.53-5.64 597.17-5.08 598.29-5.08L598.29-5.08Q598.97-5.08 599.71-5.2 600.44-5.32 601.17-5.32L601.17-5.32Q602.44-5.32 603-4.44 603.56-3.56 603.56-2.2L603.56-2.2Q603.56-1.17 602.95-0.42 602.34 0.34 601.42 0.81 600.49 1.27 599.34 1.51 598.19 1.76 597.17 1.76ZM618.85-26.86L618.85-26.86Q618.85-25.44 617.9-24.76 616.94-24.07 615.77-23.46 614.6-22.85 613.65-22.02 612.7-21.19 612.7-19.53L612.7-19.53Q612.7-18.65 613.11-18.02 613.53-17.38 614.14-16.87 614.75-16.36 615.48-15.82 616.21-15.28 616.82-14.6 617.43-13.92 617.85-12.94 618.26-11.96 618.26-10.55L618.26-10.55Q618.26-8.5 617.21-6.52 616.16-4.54 614.53-3 612.89-1.46 610.84-0.54 608.79 0.39 606.79 0.39L606.79 0.39Q605.96 0.39 605.13 0.27 604.3 0.15 603.64-0.2 602.98-0.54 602.54-1.15 602.1-1.76 602.1-2.73L602.1-2.73Q602.1-4.1 602.64-4.86 603.17-5.62 604-6.05 604.83-6.49 605.79-6.74 606.74-6.98 607.57-7.35 608.4-7.71 608.94-8.3 609.47-8.89 609.47-9.96L609.47-9.96Q609.47-10.99 608.67-12.08 607.86-13.18 606.88-14.43 605.91-15.67 605.1-17.09 604.3-18.51 604.3-20.21L604.3-20.21Q604.3-22.31 605.15-24.1 606.01-25.88 607.45-27.2 608.89-28.52 610.74-29.27 612.6-30.03 614.65-30.03L614.65-30.03Q615.43-30.03 616.19-29.88 616.94-29.74 617.53-29.37 618.12-29 618.48-28.39 618.85-27.78 618.85-26.86Z" opacity="1" transform="matrix(1,0,0,1,0,0)" fill="#000000" class="slogan-text-1" data-fill-palette-color="secondary" id="text-1"></path></svg></g></svg></g></svg></g></svg></g><g transform="matrix(1,0,0,1,122.7794239377801,0)"><svg viewBox="0 0 151.93875212443973 117.30942839913418" height="117.30942839913418" width="151.93875212443973"><g><svg xmlns="http://www.w3.org/2000/svg" data-name="Layer 1" viewBox="4.9991879398564745 15.255251864120059 90.00081206014353 69.4881567118983" x="0" y="0" height="117.30942839913418" width="151.93875212443973" class="icon-icon-0" data-fill-palette-color="accent" id="icon-0"><path d="M32.81 68.055A6.933 6.933 0 1 1 39.741 74.988 6.933 6.933 0 0 1 32.809 68.055M15.174 74.565A34.742 34.742 0 1 1 74.484 50 34.742 34.742 0 0 1 15.174 74.565M8.6 50A31.142 31.142 0 0 0 61.762 72.021 31.142 31.142 0 0 0 17.722 27.978 30.94 30.94 0 0 0 8.6 50M61.985 82.942H95V76.884H69.003C68.623 77.296 68.24 77.704 67.843 78.102A40 40 0 0 1 61.985 82.942M27.572 65.032A6.933 6.933 0 1 0 18.102 62.493 6.933 6.933 0 0 0 27.572 65.03M20.639 46.975A6.933 6.933 0 1 0 18.102 37.506 6.933 6.933 0 0 0 20.639 46.976M36 50A3.743 3.743 0 1 0 39.742 46.257 3.743 3.743 0 0 0 35.999 50M39.742 38.878A6.933 6.933 0 1 0 32.809 31.945 6.933 6.933 0 0 0 39.742 38.878M51.912 65.03A6.933 6.933 0 1 0 49.374 55.561 6.933 6.933 0 0 0 51.912 65.031M58.844 46.976A6.933 6.933 0 1 0 49.374 44.44 6.933 6.933 0 0 0 58.844 46.976" fill="#0191da" data-fill-palette-color="accent"></path></svg></g></svg></g><g></g></svg></g><defs></defs></svg><rect width="395.52" height="227.7925680857734" fill="none" stroke="none" visibility="hidden"></rect></g></svg></g></svg>